G04 #@! TF.FileFunction,Legend,Bot*
%FSLAX46Y46*%
G04 Gerber Fmt 4.6, Leading zero omitted, Abs format (unit mm)*
G04 Created by KiCad (PCBNEW (2015-05-13 BZR 5653)-product) date Sunday, September 27, 2015 'PMt' 08:24:50 PM*
%MOMM*%
G01*
G04 APERTURE LIST*
%ADD10C,0.100000*%
%ADD11C,0.125000*%
%ADD12C,0.375000*%
G04 APERTURE END LIST*
D10*
D11*
X135323810Y-86988095D02*
X135361905Y-86907143D01*
X135361905Y-86754762D01*
X135323810Y-86683333D01*
X135285714Y-86650000D01*
X135209524Y-86621429D01*
X134980952Y-86650000D01*
X134904762Y-86697619D01*
X134866667Y-86740476D01*
X134828571Y-86821429D01*
X134828571Y-86973810D01*
X134866667Y-87045238D01*
X135361905Y-87326190D02*
X134828571Y-87392857D01*
X134980952Y-87373809D02*
X134904762Y-87421428D01*
X134866667Y-87464286D01*
X134828571Y-87545238D01*
X134828571Y-87621429D01*
X135361905Y-87935714D02*
X135323810Y-87864285D01*
X135285714Y-87830952D01*
X135209524Y-87802381D01*
X134980952Y-87830952D01*
X134904762Y-87878571D01*
X134866667Y-87921428D01*
X134828571Y-88002381D01*
X134828571Y-88116667D01*
X134866667Y-88188095D01*
X134904762Y-88221428D01*
X134980952Y-88250000D01*
X135209524Y-88221429D01*
X135285714Y-88173809D01*
X135323810Y-88130952D01*
X135361905Y-88050000D01*
X135361905Y-87935714D01*
X135323810Y-88511905D02*
X135361905Y-88583333D01*
X135361905Y-88735714D01*
X135323810Y-88816667D01*
X135247619Y-88864286D01*
X135209524Y-88869048D01*
X135133333Y-88840476D01*
X135095238Y-88769047D01*
X135095238Y-88654762D01*
X135057143Y-88583333D01*
X134980952Y-88554762D01*
X134942857Y-88559524D01*
X134866667Y-88607143D01*
X134828571Y-88688096D01*
X134828571Y-88802381D01*
X134866667Y-88873810D01*
X135323810Y-89159524D02*
X135361905Y-89230952D01*
X135361905Y-89383333D01*
X135323810Y-89464286D01*
X135247619Y-89511905D01*
X135209524Y-89516667D01*
X135133333Y-89488095D01*
X135095238Y-89416666D01*
X135095238Y-89302381D01*
X135057143Y-89230952D01*
X134980952Y-89202381D01*
X134942857Y-89207143D01*
X134866667Y-89254762D01*
X134828571Y-89335715D01*
X134828571Y-89450000D01*
X134866667Y-89521429D01*
X135323810Y-90188095D02*
X135361905Y-90107143D01*
X135361905Y-89954762D01*
X135323810Y-89883333D01*
X135285714Y-89850000D01*
X135209524Y-89821429D01*
X134980952Y-89850000D01*
X134904762Y-89897619D01*
X134866667Y-89940476D01*
X134828571Y-90021429D01*
X134828571Y-90173810D01*
X134866667Y-90245238D01*
X135361905Y-90640476D02*
X135323810Y-90569047D01*
X135285714Y-90535714D01*
X135209524Y-90507143D01*
X134980952Y-90535714D01*
X134904762Y-90583333D01*
X134866667Y-90626190D01*
X134828571Y-90707143D01*
X134828571Y-90821429D01*
X134866667Y-90892857D01*
X134904762Y-90926190D01*
X134980952Y-90954762D01*
X135209524Y-90926191D01*
X135285714Y-90878571D01*
X135323810Y-90835714D01*
X135361905Y-90754762D01*
X135361905Y-90640476D01*
X134828571Y-91316667D02*
X135361905Y-91250000D01*
X134904762Y-91307143D02*
X134866667Y-91350000D01*
X134828571Y-91430953D01*
X134828571Y-91545239D01*
X134866667Y-91616667D01*
X134942857Y-91645238D01*
X135361905Y-91592857D01*
X134828571Y-92040477D02*
X135361905Y-91973810D01*
X134904762Y-92030953D02*
X134866667Y-92073810D01*
X134828571Y-92154763D01*
X134828571Y-92269049D01*
X134866667Y-92340477D01*
X134942857Y-92369048D01*
X135361905Y-92316667D01*
X135323810Y-93007144D02*
X135361905Y-92926192D01*
X135361905Y-92773811D01*
X135323810Y-92702382D01*
X135247619Y-92673811D01*
X134942857Y-92711906D01*
X134866667Y-92759525D01*
X134828571Y-92840478D01*
X134828571Y-92992859D01*
X134866667Y-93064287D01*
X134942857Y-93092858D01*
X135019048Y-93083334D01*
X135095238Y-92692858D01*
X135323810Y-93730953D02*
X135361905Y-93650001D01*
X135361905Y-93497620D01*
X135323810Y-93426191D01*
X135285714Y-93392858D01*
X135209524Y-93364287D01*
X134980952Y-93392858D01*
X134904762Y-93440477D01*
X134866667Y-93483334D01*
X134828571Y-93564287D01*
X134828571Y-93716668D01*
X134866667Y-93788096D01*
X134828571Y-94021429D02*
X134828571Y-94326191D01*
X134561905Y-94169048D02*
X135247619Y-94083334D01*
X135323810Y-94111905D01*
X135361905Y-94183334D01*
X135361905Y-94259524D01*
X134828571Y-95088096D02*
X134828571Y-95392858D01*
X135361905Y-95135715D02*
X134676190Y-95221429D01*
X134600000Y-95269048D01*
X134561905Y-95350001D01*
X134561905Y-95426191D01*
X135361905Y-95707144D02*
X135323810Y-95635715D01*
X135285714Y-95602382D01*
X135209524Y-95573811D01*
X134980952Y-95602382D01*
X134904762Y-95650001D01*
X134866667Y-95692858D01*
X134828571Y-95773811D01*
X134828571Y-95888097D01*
X134866667Y-95959525D01*
X134904762Y-95992858D01*
X134980952Y-96021430D01*
X135209524Y-95992859D01*
X135285714Y-95945239D01*
X135323810Y-95902382D01*
X135361905Y-95821430D01*
X135361905Y-95707144D01*
X135361905Y-96316668D02*
X134828571Y-96383335D01*
X134980952Y-96364287D02*
X134904762Y-96411906D01*
X134866667Y-96454764D01*
X134828571Y-96535716D01*
X134828571Y-96611907D01*
X135323810Y-97388097D02*
X135361905Y-97497621D01*
X135361905Y-97688097D01*
X135323810Y-97769049D01*
X135285714Y-97811907D01*
X135209524Y-97859526D01*
X135133333Y-97869049D01*
X135057143Y-97840478D01*
X135019048Y-97807144D01*
X134980952Y-97735716D01*
X134942857Y-97588097D01*
X134904762Y-97516668D01*
X134866667Y-97483335D01*
X134790476Y-97454764D01*
X134714286Y-97464287D01*
X134638095Y-97511906D01*
X134600000Y-97554763D01*
X134561905Y-97635716D01*
X134561905Y-97826192D01*
X134600000Y-97935716D01*
X135323810Y-98530954D02*
X135361905Y-98450002D01*
X135361905Y-98297621D01*
X135323810Y-98226192D01*
X135285714Y-98192859D01*
X135209524Y-98164288D01*
X134980952Y-98192859D01*
X134904762Y-98240478D01*
X134866667Y-98283335D01*
X134828571Y-98364288D01*
X134828571Y-98516669D01*
X134866667Y-98588097D01*
X135361905Y-98869049D02*
X134561905Y-98969049D01*
X135361905Y-99211906D02*
X134942857Y-99264287D01*
X134866667Y-99235716D01*
X134828571Y-99164288D01*
X134828571Y-99050002D01*
X134866667Y-98969049D01*
X134904762Y-98926192D01*
X135361905Y-99592859D02*
X134828571Y-99659526D01*
X134561905Y-99692859D02*
X134600000Y-99650002D01*
X134638095Y-99683335D01*
X134600000Y-99726192D01*
X134561905Y-99692859D01*
X134638095Y-99683335D01*
X135361905Y-99973811D02*
X134828571Y-100040478D01*
X134561905Y-100073811D02*
X134600000Y-100030954D01*
X134638095Y-100064287D01*
X134600000Y-100107144D01*
X134561905Y-100073811D01*
X134638095Y-100064287D01*
X134828571Y-100307144D02*
X134828571Y-100611906D01*
X134561905Y-100454763D02*
X135247619Y-100369049D01*
X135323810Y-100397620D01*
X135361905Y-100469049D01*
X135361905Y-100545239D01*
X135628571Y-101616669D02*
X135628571Y-101426192D01*
X134485714Y-101569049D01*
X134485714Y-101759526D01*
X135323810Y-101921430D02*
X135361905Y-101992858D01*
X135361905Y-102145239D01*
X135323810Y-102226192D01*
X135247619Y-102273811D01*
X135209524Y-102278573D01*
X135133333Y-102250001D01*
X135095238Y-102178572D01*
X135095238Y-102064287D01*
X135057143Y-101992858D01*
X134980952Y-101964287D01*
X134942857Y-101969049D01*
X134866667Y-102016668D01*
X134828571Y-102097621D01*
X134828571Y-102211906D01*
X134866667Y-102283335D01*
X134828571Y-102554763D02*
X134828571Y-102859525D01*
X134561905Y-102702382D02*
X135247619Y-102616668D01*
X135323810Y-102645239D01*
X135361905Y-102716668D01*
X135361905Y-102792858D01*
X135361905Y-103402382D02*
X134942857Y-103454763D01*
X134866667Y-103426192D01*
X134828571Y-103354764D01*
X134828571Y-103202383D01*
X134866667Y-103121430D01*
X135323810Y-103407144D02*
X135361905Y-103326192D01*
X135361905Y-103135716D01*
X135323810Y-103064287D01*
X135247619Y-103035716D01*
X135171429Y-103045239D01*
X135095238Y-103092858D01*
X135057143Y-103173811D01*
X135057143Y-103364287D01*
X135019048Y-103445239D01*
X135323810Y-104130954D02*
X135361905Y-104050002D01*
X135361905Y-103897621D01*
X135323810Y-103826192D01*
X135285714Y-103792859D01*
X135209524Y-103764288D01*
X134980952Y-103792859D01*
X134904762Y-103840478D01*
X134866667Y-103883335D01*
X134828571Y-103964288D01*
X134828571Y-104116669D01*
X134866667Y-104188097D01*
X135361905Y-104469049D02*
X134561905Y-104569049D01*
X135057143Y-104583335D02*
X135361905Y-104773811D01*
X134828571Y-104840478D02*
X135133333Y-104497620D01*
X135628571Y-105007145D02*
X135628571Y-105197621D01*
X134485714Y-105340478D01*
X134485714Y-105150002D01*
D12*
X133357143Y-83857144D02*
X130357143Y-83857144D01*
X133357143Y-85285715D02*
X130357143Y-85285715D01*
X133357143Y-87000000D01*
X130357143Y-87000000D01*
X130357143Y-88000000D02*
X130357143Y-89714286D01*
X133357143Y-88857143D02*
X130357143Y-88857143D01*
X133357143Y-92428571D02*
X131928571Y-91428571D01*
X133357143Y-90714286D02*
X130357143Y-90714286D01*
X130357143Y-91857143D01*
X130500000Y-92142857D01*
X130642857Y-92285714D01*
X130928571Y-92428571D01*
X131357143Y-92428571D01*
X131642857Y-92285714D01*
X131785714Y-92142857D01*
X131928571Y-91857143D01*
X131928571Y-90714286D01*
X130357143Y-94285714D02*
X130357143Y-94857143D01*
X130500000Y-95142857D01*
X130785714Y-95428571D01*
X131357143Y-95571429D01*
X132357143Y-95571429D01*
X132928571Y-95428571D01*
X133214286Y-95142857D01*
X133357143Y-94857143D01*
X133357143Y-94285714D01*
X133214286Y-94000000D01*
X132928571Y-93714286D01*
X132357143Y-93571429D01*
X131357143Y-93571429D01*
X130785714Y-93714286D01*
X130500000Y-94000000D01*
X130357143Y-94285714D01*
X133357143Y-96857143D02*
X130357143Y-96857143D01*
X130357143Y-98000000D01*
X130500000Y-98285714D01*
X130642857Y-98428571D01*
X130928571Y-98571428D01*
X131357143Y-98571428D01*
X131642857Y-98428571D01*
X131785714Y-98285714D01*
X131928571Y-98000000D01*
X131928571Y-96857143D01*
X133357143Y-101571428D02*
X131928571Y-100571428D01*
X133357143Y-99857143D02*
X130357143Y-99857143D01*
X130357143Y-101000000D01*
X130500000Y-101285714D01*
X130642857Y-101428571D01*
X130928571Y-101571428D01*
X131357143Y-101571428D01*
X131642857Y-101428571D01*
X131785714Y-101285714D01*
X131928571Y-101000000D01*
X131928571Y-99857143D01*
X130357143Y-103428571D02*
X130357143Y-104000000D01*
X130500000Y-104285714D01*
X130785714Y-104571428D01*
X131357143Y-104714286D01*
X132357143Y-104714286D01*
X132928571Y-104571428D01*
X133214286Y-104285714D01*
X133357143Y-104000000D01*
X133357143Y-103428571D01*
X133214286Y-103142857D01*
X132928571Y-102857143D01*
X132357143Y-102714286D01*
X131357143Y-102714286D01*
X130785714Y-102857143D01*
X130500000Y-103142857D01*
X130357143Y-103428571D01*
X133214286Y-105857143D02*
X133357143Y-106285714D01*
X133357143Y-107000000D01*
X133214286Y-107285714D01*
X133071429Y-107428571D01*
X132785714Y-107571428D01*
X132500000Y-107571428D01*
X132214286Y-107428571D01*
X132071429Y-107285714D01*
X131928571Y-107000000D01*
X131785714Y-106428571D01*
X131642857Y-106142857D01*
X131500000Y-106000000D01*
X131214286Y-105857143D01*
X130928571Y-105857143D01*
X130642857Y-106000000D01*
X130500000Y-106142857D01*
X130357143Y-106428571D01*
X130357143Y-107142857D01*
X130500000Y-107571428D01*
X131785714Y-108857143D02*
X131785714Y-109857143D01*
X133357143Y-110285714D02*
X133357143Y-108857143D01*
X130357143Y-108857143D01*
X130357143Y-110285714D01*
M02*
